<?xml version="1.0" encoding="iso-8859-1"?>
<!-- Generator: Adobe Illustrator 25.2.1, SVG Export Plug-In . SVG Version: 6.00 Build 0)  -->
<svg version="1.1" id="&#x5716;&#x5C64;_1" xmlns="http://www.w3.org/2000/svg" xmlns:xlink="http://www.w3.org/1999/xlink" x="0px"
	 y="0px" viewBox="0 0 273 343" style="enable-background:new 0 0 273 343;" xml:space="preserve">
<g>
	<path style="fill:#FFFFFF;" d="M0.913,326.565c0-96.189,0-192.378,0-288.567c0.29-0.347,0.668-0.652,0.856-1.048
		c0.776-1.637,1.305-3.421,2.266-4.934c4.28-6.74,10.443-10.305,18.472-10.314c27.969-0.034,55.938-0.013,83.906-0.014
		c0.567,0,1.137,0.019,1.701-0.025c0.97-0.076,1.629-0.562,1.859-1.548c1.043-4.461,3.611-8.042,6.572-11.398
		c2.467-2.796,5.512-4.821,8.91-6.225c2.423-1.001,4.968-2.021,7.535-2.278c3.175-0.318,6.385-0.4,9.648,0.584
		c3.15,0.949,6.22,1.92,8.988,3.67c4.127,2.608,7.311,6.154,9.611,10.437c0.958,1.785,1.537,3.771,2.394,5.616
		c0.216,0.466,0.79,0.9,1.292,1.064c0.597,0.195,1.294,0.101,1.947,0.101c27.271,0.003,54.541,0.001,81.812,0.005
		c2.958,0,5.846,0.077,8.772,0.995c2.792,0.876,5.251,2.244,7.352,4.046c5.211,4.469,7.686,10.348,7.851,17.201
		c0.015,0.611,0.003,1.222,0.003,1.833c0,91.074-0.011,182.149,0.038,273.223c0.002,3.831-0.467,7.434-1.983,10.99
		c-1.442,3.384-3.535,6.225-6.352,8.437c-3.928,3.085-8.411,4.589-13.54,4.584c-76.14-0.06-152.279-0.041-228.419-0.042
		c-0.48,0-0.96-0.011-1.44-0.007c-4.52,0.039-8.43-1.694-11.87-4.423c-3.55-2.815-6.093-6.401-7.268-10.869
		C1.714,327.244,1.225,326.928,0.913,326.565z M15.148,182.246c0,45.779,0,91.558,0.003,137.337c0,0.959-0.136,1.969,0.111,2.867
		c0.374,1.357,0.818,2.785,1.612,3.917c1.355,1.932,3.457,2.383,5.772,2.382c75.837-0.025,151.674-0.02,227.512-0.021
		c0.654,0,1.31,0.009,1.963-0.027c1.75-0.097,3.167-0.893,4.274-2.207c1.576-1.871,1.913-4.116,1.912-6.482
		c-0.009-91.689-0.008-183.378-0.009-275.067c0-0.611,0.127-1.263-0.043-1.825c-0.472-1.559-0.832-3.227-1.669-4.585
		c-1.505-2.443-4.093-2.666-6.708-2.664c-17.978,0.014-35.955,0.006-53.933,0.007c-1.859,0-1.989,0.134-1.991,2.032
		c-0.006,6.241-0.022,12.481,0.003,18.722c0.007,1.814-0.503,3.484-1.516,4.913c-1.421,2.004-3.468,2.896-5.961,2.895
		c-33.293-0.016-66.587-0.01-99.88-0.01c-0.262,0-0.558,0.076-0.78-0.019c-1.373-0.59-2.927-0.976-4.044-1.89
		c-1.68-1.377-2.269-3.429-2.268-5.621c0.005-6.371-0.006-12.743-0.016-19.114c-0.003-1.81-0.102-1.904-1.945-1.907
		c-2.749-0.004-5.498-0.001-8.247-0.001c-15.229,0-30.457-0.021-45.686,0.035c-1.577,0.006-3.313,0.136-4.694,0.796
		c-3.014,1.441-3.796,4.22-3.794,7.416C15.156,90.164,15.146,136.205,15.148,182.246z M136.61,50.051c11.473,0,22.947,0,34.42,0
		c2.268,0,4.537-0.016,6.805,0.001c1.154,0.008,1.837-0.447,1.837-1.676c0.003-3.709-0.004-7.417,0.013-11.125
		c0.004-0.819-0.421-1.207-1.164-1.298c-0.517-0.064-1.043-0.071-1.565-0.072c-6.282-0.005-12.564-0.002-18.846-0.007
		c-3.054-0.003-6.33-2.372-6.819-5.515c-0.419-2.688-0.891-5.444-1.891-7.95c-1.879-4.71-5.779-7.154-10.639-8.026
		c-2.426-0.436-4.841-0.128-7.179,0.824c-3.177,1.292-5.655,3.306-7.353,6.32c-1.37,2.431-1.824,5.08-1.967,7.778
		c-0.211,3.989-3.668,6.585-7.382,6.577c-6.413-0.014-12.826-0.01-19.238,0.005c-1.705,0.004-1.861,0.185-1.865,1.889
		c-0.007,3.141-0.003,6.283-0.002,9.424c0.001,2.848,0.003,2.851,2.787,2.851C109.912,50.051,123.261,50.051,136.61,50.051z"/>
</g>
<path style="fill:#FFFFFF;" d="M93.282,120.038l-7.812,7.812l43.522,43.522l-43.779,43.865l7.726,7.726l43.865-43.779l43.779,43.779
	l7.812-7.812l-43.779-43.779l43.522-43.522l-7.812-7.812l-43.522,43.522L93.282,120.038z"/>
</svg>
