<svg id="圖層_1" data-name="圖層 1" xmlns="http://www.w3.org/2000/svg" width="248.91" height="314.13" viewBox="0 0 248.91 314.13">
  <g>
    <path d="M11.62,306.38V42.1a4.44,4.44,0,0,0,.78-1,43.17,43.17,0,0,1,2.08-4.52C18.4,30.45,24,27.19,31.4,27.18q38.42,0,76.84,0c.52,0,1,0,1.56,0a1.72,1.72,0,0,0,1.7-1.41c1-4.09,3.31-7.37,6-10.44a21.79,21.79,0,0,1,8.16-5.7,25.29,25.29,0,0,1,6.9-2.09,22.31,22.31,0,0,1,8.84.53,32.4,32.4,0,0,1,8.23,3.37,25.09,25.09,0,0,1,8.8,9.55c.88,1.64,1.41,3.46,2.2,5.15a2.12,2.12,0,0,0,1.18,1,5.82,5.82,0,0,0,1.78.09h74.93a26.13,26.13,0,0,1,8,.91,18.86,18.86,0,0,1,6.74,3.71,20.5,20.5,0,0,1,7.19,15.75c0,.56,0,1.12,0,1.68q0,125.11,0,250.23a25.1,25.1,0,0,1-1.81,10.06,19.22,19.22,0,0,1-5.82,7.73,19.46,19.46,0,0,1-12.4,4.2q-104.59-.09-209.2,0H30a17,17,0,0,1-10.87-4.05,18.5,18.5,0,0,1-6.65-9.95C12.36,307,11.91,306.72,11.62,306.38Zm13-132.17V300a10.45,10.45,0,0,0,.1,2.63,11.68,11.68,0,0,0,1.48,3.58c1.24,1.77,3.17,2.19,5.29,2.19q104.18,0,208.36,0c.6,0,1.2,0,1.8,0a5.37,5.37,0,0,0,3.91-2,8.69,8.69,0,0,0,1.75-5.94q0-126,0-251.91a6.26,6.26,0,0,0,0-1.68,18.63,18.63,0,0,0-1.53-4.2c-1.38-2.23-3.75-2.44-6.15-2.43q-24.69,0-49.39,0c-1.7,0-1.82.13-1.82,1.86,0,5.72,0,11.43,0,17.15a7.57,7.57,0,0,1-1.39,4.5,6.31,6.31,0,0,1-5.46,2.65H90.1a1.92,1.92,0,0,1-.72,0,15.13,15.13,0,0,1-3.7-1.73,6.34,6.34,0,0,1-2.08-5.15q0-8.74,0-17.5c0-1.66-.09-1.75-1.78-1.75H74.25c-13.94,0-27.89,0-41.84,0a10.51,10.51,0,0,0-4.3.73c-2.76,1.32-3.47,3.87-3.47,6.79Q24.69,111,24.66,174.21ZM135.9,53.14h37.76c1.05,0,1.68-.41,1.68-1.53,0-3.4,0-6.8,0-10.19a1.07,1.07,0,0,0-1.07-1.19,11.32,11.32,0,0,0-1.43-.07H155.59c-2.8,0-5.8-2.18-6.24-5a33.61,33.61,0,0,0-1.74-7.28c-1.72-4.32-5.29-6.56-9.74-7.36a11.84,11.84,0,0,0-6.58.76A13,13,0,0,0,124.56,27a15.89,15.89,0,0,0-1.8,7.12,6.52,6.52,0,0,1-6.76,6q-8.81,0-17.62,0c-1.56,0-1.71.17-1.71,1.73v8.63c0,2.61,0,2.61,2.55,2.61Z" transform="translate(-11.62 -7.3)" style="fill: #fff"/>
    <path d="M127.12,211.17c-1.4.36-2.45-.66-3.48-1.56q-11.39-9.83-22.72-19.7c-4.94-4.29-9.87-8.6-14.88-12.82a5.73,5.73,0,0,1-1.91-5.85c.08-.44.54-.83.87-1.21,2.36-2.79,5.12-3.54,8-1.12,4.21,3.56,8.35,7.19,12.52,10.79l19.66,17c1,.84,1.39.78,2.08-.27q6.75-10.32,13.51-20.63c5.49-8.41,10.95-16.85,16.45-25.27,4.52-6.92,9.07-13.81,13.59-20.71,2.12-3.24,4.22-6.5,6.32-9.75,1.4-2.17,4.3-3.45,6.52-2.55,3.18,1.3,4.85,4.37,2.87,8s-4.53,7.14-6.84,10.68c-3.17,4.84-6.37,9.67-9.54,14.5q-5.75,8.76-11.47,17.53-5.37,8.22-10.74,16.43c-3.48,5.3-7,10.59-10.48,15.88-1.76,2.67-3.46,5.37-5.26,8A5.39,5.39,0,0,1,127.12,211.17Z" transform="translate(-11.62 -7.3)" style="fill: #fff"/>
  </g>
</svg>
