<?xml version="1.0" encoding="utf-8"?>
<!-- Generator: Adobe Illustrator 25.2.1, SVG Export Plug-In . SVG Version: 6.00 Build 0)  -->
<svg version="1.1" id="圖層_1" xmlns="http://www.w3.org/2000/svg" xmlns:xlink="http://www.w3.org/1999/xlink" x="0px" y="0px"
	 viewBox="0 0 118.8 116.9" style="enable-background:new 0 0 118.8 116.9;" xml:space="preserve">
<style type="text/css">
	.st0{fill:#38470B;}
</style>
<g>
	<path class="st0" d="M31.7,60.7c0,8-6.5,14.5-14.6,14.7C8.8,75.1,2.3,68.1,2.7,59.9c0.4-7.8,6.8-14,14.7-14.2
		C25.5,46.1,31.9,52.7,31.7,60.7z"/>
	<path class="st0" d="M29.9,41.6c-7,0.1-12.7-5.4-12.8-12.3c0-0.3,0-0.6,0-0.9c-0.5-7,4.8-13.1,12-13.6S42.4,19.6,43,26.6
		c0.1,0.7,0,1.4,0,2.1c0.3,6.9-5.2,12.7-12.2,12.9C30.5,41.6,30.2,41.6,29.9,41.6z"/>
	<path class="st0" d="M61.3,4c6.2-0.2,11.3,4.6,11.5,10.7c0,0.1,0,0.2,0,0.4c0,6.4-5.2,11.6-11.7,11.9c-6.2-0.5-11.1-5.6-11.3-11.7
		C49.8,9,54.9,4,61.1,4C61.2,4,61.3,4,61.3,4z"/>
	<path class="st0" d="M92.7,38.3c-5.3,0-9.6-4.2-9.6-9.4c-0.5-5.2,3.4-9.8,8.7-10.3c5.3-0.5,10,3.3,10.5,8.5c0,0.4,0.1,0.8,0,1.2
		c0.2,5.3-3.9,9.8-9.3,10C92.9,38.3,92.8,38.3,92.7,38.3z"/>
	<path class="st0" d="M96.5,60.7c0.1-5,3.9-9.1,8.9-9.7c5.3-0.2,9.7,3.9,9.9,9.2s-4,9.6-9.3,9.7C100.8,69.8,96.7,65.8,96.5,60.7z"/>
	<path class="st0" d="M99.5,90.6c0.4,1.6,0.3,3.3-0.2,4.8c-0.9,3-3.9,4.9-7,4.5c-4.5-0.2-6.9-3.2-6.9-7.5c0-3.9,3.2-7.1,7.2-7.1
		c0.1,0,0.1,0,0.2,0C96,85.2,98.8,87.5,99.5,90.6z"/>
</g>
<path class="st0" d="M36.6,95.2c0,2.5-2.1,4.6-4.7,4.6c-0.1,0-0.3,0-0.4,0c-2.6,0-4.7-2-4.7-4.6c0-0.2,0-0.4,0-0.5
	c0-2.7,2.2-4.8,4.8-4.8c0.1,0,0.1,0,0.2,0c2.7,0.1,4.9,2.4,4.7,5.1C36.6,95,36.6,95.1,36.6,95.2z"/>
<path class="st0" d="M68.8,106.4c0,3.5-2.9,6.4-6.5,6.4c-0.2,0-0.4,0-0.5,0c-3.6,0-6.5-2.8-6.5-6.3c0-0.3,0-0.5,0-0.8
	c0-3.7,3-6.7,6.8-6.7c0.1,0,0.2,0,0.2,0c3.8,0.2,6.7,3.4,6.5,7.1C68.8,106.3,68.8,106.3,68.8,106.4z"/>
</svg>
